<?xml version="1.0" encoding="UTF-8" standalone="no"?>
<!DOCTYPE svg PUBLIC "-//W3C//DTD SVG 1.1//EN"
 "http://www.w3.org/Graphics/SVG/1.1/DTD/svg11.dtd">
<!-- Generated by graphviz version 2.43.0 (0)
 -->
<!-- Title: g Pages: 1 -->
<svg width="2259pt" height="536pt"
 viewBox="0.00 0.00 2259.00 536.00" xmlns="http://www.w3.org/2000/svg" xmlns:xlink="http://www.w3.org/1999/xlink">
<g id="graph0" class="graph" transform="scale(1 1) rotate(0) translate(4 532)">
<title>g</title>
<polygon fill="white" stroke="transparent" points="-4,4 -4,-532 2255,-532 2255,4 -4,4"/>
<!-- producer_producer -->
<g id="node1" class="node">
<title>producer_producer</title>
<polygon fill="none" stroke="black" points="337,-112 337,-136 921,-136 921,-112 337,-112"/>
<text text-anchor="start" x="543" y="-121.2" font-family="Times,serif" font-weight="bold" font-size="16.00">producer_producer</text>
<polygon fill="none" stroke="black" points="337,-88 337,-112 921,-112 921,-88 337,-88"/>
<text text-anchor="start" x="340" y="-97.2" font-family="Times,serif" font-size="16.00" fill="red">dataport sb_queue_union_art_DataContent_1_t </text>
<text text-anchor="start" x="734" y="-97.2" font-family="Times,serif" font-weight="bold" font-size="16.00" fill="red">sb_to_filter_queue_1</text>
<polygon fill="none" stroke="black" points="337,-64 337,-88 921,-88 921,-64 337,-64"/>
<text text-anchor="start" x="428.5" y="-73.2" font-family="Times,serif" font-size="16.00" fill="blue">emits ReceiveEvent </text>
<text text-anchor="start" x="597.5" y="-73.2" font-family="Times,serif" font-weight="bold" font-size="16.00" fill="blue">sb_to_filter_1_notification</text>
<polygon fill="none" stroke="black" points="337,-40 337,-64 921,-64 921,-40 337,-40"/>
<text text-anchor="start" x="483" y="-49.2" font-family="Times,serif" font-size="16.00" fill="blue">emits TickTock </text>
<text text-anchor="start" x="612" y="-49.2" font-family="Times,serif" font-weight="bold" font-size="16.00" fill="blue">sb_self_pacer_tick</text>
<polygon fill="none" stroke="black" points="337,-16 337,-40 921,-40 921,-16 337,-16"/>
<text text-anchor="start" x="463" y="-25.2" font-family="Times,serif" font-size="16.00" fill="blue">consumes TickTock </text>
<text text-anchor="start" x="628" y="-25.2" font-family="Times,serif" font-weight="bold" font-size="16.00" fill="blue">sb_self_pacer_tock</text>
</g>
<!-- producer_producer&#45;&gt;producer_producer -->
<g id="conn5" class="edge">
<title>producer_producer:sb_self_pacer_tick&#45;&gt;producer_producer:sb_self_pacer_tock</title>
<path fill="none" stroke="blue" d="M336.62,-57.7C163.04,-58.02 0,-53.09 0,-40 0,-27.16 156.73,-22.17 326.46,-22.29"/>
<polygon fill="blue" stroke="blue" points="326.61,-25.79 336.62,-22.3 326.62,-18.79 326.61,-25.79"/>
</g>
<!-- filter_filter -->
<g id="node2" class="node">
<title>filter_filter</title>
<polygon fill="none" stroke="black" points="973.5,-148 973.5,-172 1602.5,-172 1602.5,-148 973.5,-148"/>
<text text-anchor="start" x="1239.5" y="-157.2" font-family="Times,serif" font-weight="bold" font-size="16.00">filter_filter</text>
<polygon fill="none" stroke="black" points="973.5,-124 973.5,-148 1602.5,-148 1602.5,-124 973.5,-124"/>
<text text-anchor="start" x="978" y="-133.2" font-family="Times,serif" font-size="16.00" fill="red">dataport sb_queue_union_art_DataContent_1_t </text>
<text text-anchor="start" x="1372" y="-133.2" font-family="Times,serif" font-weight="bold" font-size="16.00" fill="red">sb_from_producer_queue</text>
<polygon fill="none" stroke="black" points="973.5,-100 973.5,-124 1602.5,-124 1602.5,-100 973.5,-100"/>
<text text-anchor="start" x="976.5" y="-109.2" font-family="Times,serif" font-size="16.00" fill="red">dataport sb_queue_union_art_DataContent_1_t </text>
<text text-anchor="start" x="1370.5" y="-109.2" font-family="Times,serif" font-weight="bold" font-size="16.00" fill="red">sb_to_consumer_queue_1</text>
<polygon fill="none" stroke="black" points="973.5,-76 973.5,-100 1602.5,-100 1602.5,-76 973.5,-76"/>
<text text-anchor="start" x="1065" y="-85.2" font-family="Times,serif" font-size="16.00" fill="blue">emits ReceiveEvent </text>
<text text-anchor="start" x="1234" y="-85.2" font-family="Times,serif" font-weight="bold" font-size="16.00" fill="blue">sb_to_consumer_1_notification</text>
<polygon fill="none" stroke="black" points="973.5,-52 973.5,-76 1602.5,-76 1602.5,-52 973.5,-52"/>
<text text-anchor="start" x="1142" y="-61.2" font-family="Times,serif" font-size="16.00" fill="blue">emits TickTock </text>
<text text-anchor="start" x="1271" y="-61.2" font-family="Times,serif" font-weight="bold" font-size="16.00" fill="blue">sb_self_pacer_tick</text>
<polygon fill="none" stroke="black" points="973.5,-28 973.5,-52 1602.5,-52 1602.5,-28 973.5,-28"/>
<text text-anchor="start" x="1048.5" y="-37.2" font-family="Times,serif" font-size="16.00" fill="blue">consumes ReceiveEvent </text>
<text text-anchor="start" x="1253.5" y="-37.2" font-family="Times,serif" font-weight="bold" font-size="16.00" fill="blue">sb_from_producer_notification</text>
<polygon fill="none" stroke="black" points="973.5,-4 973.5,-28 1602.5,-28 1602.5,-4 973.5,-4"/>
<text text-anchor="start" x="1122" y="-13.2" font-family="Times,serif" font-size="16.00" fill="blue">consumes TickTock </text>
<text text-anchor="start" x="1287" y="-13.2" font-family="Times,serif" font-weight="bold" font-size="16.00" fill="blue">sb_self_pacer_tock</text>
</g>
<!-- producer_producer&#45;&gt;filter_filter -->
<g id="conn1" class="edge">
<title>producer_producer:sb_to_filter_1_notification&#45;&gt;filter_filter:sb_from_producer_notification</title>
<path fill="none" stroke="blue" d="M922,-76C945.69,-76 945.6,-49.41 962.6,-41.94"/>
<polygon fill="blue" stroke="blue" points="963.36,-45.35 972.5,-40 962.01,-38.48 963.36,-45.35"/>
</g>
<!-- producer_producer&#45;&gt;filter_filter -->
<g id="conn2" class="edge">
<title>producer_producer:sb_to_filter_queue_1&#45;&gt;filter_filter:sb_from_producer_queue</title>
<path fill="none" stroke="red" d="M922,-100C945.69,-100 945.6,-126.59 962.6,-134.06"/>
<polygon fill="red" stroke="red" points="962.01,-137.52 972.5,-136 963.36,-130.65 962.01,-137.52"/>
</g>
<!-- filter_filter&#45;&gt;filter_filter -->
<g id="conn6" class="edge">
<title>filter_filter:sb_self_pacer_tick&#45;&gt;filter_filter:sb_self_pacer_tock</title>
<path fill="none" stroke="blue" d="M973.09,-69C797.66,-67.96 636,-60.11 636,-40 636,-20.27 791.56,-12.34 963.08,-11.07"/>
<polygon fill="blue" stroke="blue" points="963.11,-14.57 973.09,-11 963.07,-7.57 963.11,-14.57"/>
</g>
<!-- consumer_consumer -->
<g id="node3" class="node">
<title>consumer_consumer</title>
<polygon fill="none" stroke="black" points="1654.5,-136 1654.5,-160 2243.5,-160 2243.5,-136 1654.5,-136"/>
<text text-anchor="start" x="1855.5" y="-145.2" font-family="Times,serif" font-weight="bold" font-size="16.00">consumer_consumer</text>
<polygon fill="none" stroke="black" points="1654.5,-112 1654.5,-136 2243.5,-136 2243.5,-112 1654.5,-112"/>
<text text-anchor="start" x="1657.5" y="-121.2" font-family="Times,serif" font-size="16.00" fill="red">dataport sb_queue_union_art_DataContent_1_t </text>
<text text-anchor="start" x="2051.5" y="-121.2" font-family="Times,serif" font-weight="bold" font-size="16.00" fill="red">sb_from_filter_queue</text>
<polygon fill="none" stroke="black" points="1654.5,-88 1654.5,-112 2243.5,-112 2243.5,-88 1654.5,-88"/>
<text text-anchor="start" x="1803" y="-97.2" font-family="Times,serif" font-size="16.00" fill="blue">emits TickTock </text>
<text text-anchor="start" x="1932" y="-97.2" font-family="Times,serif" font-weight="bold" font-size="16.00" fill="blue">sb_self_pacer_tick</text>
<polygon fill="none" stroke="black" points="1654.5,-64 1654.5,-88 2243.5,-88 2243.5,-64 1654.5,-64"/>
<text text-anchor="start" x="1728" y="-73.2" font-family="Times,serif" font-size="16.00" fill="blue">consumes ReceiveEvent </text>
<text text-anchor="start" x="1933" y="-73.2" font-family="Times,serif" font-weight="bold" font-size="16.00" fill="blue">sb_from_filter_notification</text>
<polygon fill="none" stroke="black" points="1654.5,-40 1654.5,-64 2243.5,-64 2243.5,-40 1654.5,-40"/>
<text text-anchor="start" x="1783" y="-49.2" font-family="Times,serif" font-size="16.00" fill="blue">consumes TickTock </text>
<text text-anchor="start" x="1948" y="-49.2" font-family="Times,serif" font-weight="bold" font-size="16.00" fill="blue">sb_self_pacer_tock</text>
</g>
<!-- filter_filter&#45;&gt;consumer_consumer -->
<g id="conn3" class="edge">
<title>filter_filter:sb_to_consumer_1_notification&#45;&gt;consumer_consumer:sb_from_filter_notification</title>
<path fill="none" stroke="blue" d="M1603.5,-88C1622.43,-88 1628.62,-79.77 1643.17,-76.94"/>
<polygon fill="blue" stroke="blue" points="1643.86,-80.39 1653.5,-76 1643.22,-73.42 1643.86,-80.39"/>
</g>
<!-- filter_filter&#45;&gt;consumer_consumer -->
<g id="conn4" class="edge">
<title>filter_filter:sb_to_consumer_queue_1&#45;&gt;consumer_consumer:sb_from_filter_queue</title>
<path fill="none" stroke="red" d="M1603.5,-112C1622.43,-112 1628.62,-120.23 1643.17,-123.06"/>
<polygon fill="red" stroke="red" points="1643.22,-126.58 1653.5,-124 1643.86,-119.61 1643.22,-126.58"/>
</g>
<!-- consumer_consumer&#45;&gt;consumer_consumer -->
<g id="conn7" class="edge">
<title>consumer_consumer:sb_self_pacer_tick&#45;&gt;consumer_consumer:sb_self_pacer_tock</title>
<path fill="none" stroke="blue" d="M1654.35,-105.05C1479.82,-104.3 1316,-96.54 1316,-76 1316,-55.86 1473.48,-48.01 1644.14,-47"/>
<polygon fill="blue" stroke="blue" points="1644.37,-50.5 1654.35,-46.95 1644.33,-43.5 1644.37,-50.5"/>
</g>
<!-- connectiontypekey -->
<g id="node4" class="node">
<title>connectiontypekey</title>
<polygon fill="none" stroke="black" points="483,-330 483,-354 776,-354 776,-330 483,-330"/>
<text text-anchor="start" x="527.5" y="-339.2" font-family="Times,serif" font-weight="bold" font-size="16.00">Key: Connection Types</text>
<polygon fill="none" stroke="black" points="483,-306 483,-330 712,-330 712,-306 483,-306"/>
<text text-anchor="start" x="528.5" y="-314.2" font-family="Times,serif" font-size="16.00" fill="red">seL4SharedData</text>
<polygon fill="red" stroke="transparent" points="712,-306 712,-330 776,-330 776,-306 712,-306"/>
<polygon fill="none" stroke="black" points="712,-306 712,-330 776,-330 776,-306 712,-306"/>
<text text-anchor="start" x="730" y="-314.2" font-family="Times,serif" font-size="16.00">red</text>
<polygon fill="none" stroke="black" points="483,-282 483,-306 712,-306 712,-282 483,-282"/>
<text text-anchor="start" x="529" y="-290.2" font-family="Times,serif" font-size="16.00" fill="blue">seL4Notification</text>
<polygon fill="blue" stroke="transparent" points="712,-282 712,-306 776,-306 776,-282 712,-282"/>
<polygon fill="none" stroke="black" points="712,-282 712,-306 776,-306 776,-282 712,-282"/>
<text text-anchor="start" x="725.5" y="-290.2" font-family="Times,serif" font-size="16.00">blue</text>
<polygon fill="none" stroke="black" points="483,-258 483,-282 712,-282 712,-258 483,-258"/>
<text text-anchor="start" x="544.5" y="-266.2" font-family="Times,serif" font-size="16.00" fill="orange">seL4RPCCall</text>
<polygon fill="orange" stroke="transparent" points="712,-258 712,-282 776,-282 776,-258 712,-258"/>
<polygon fill="none" stroke="black" points="712,-258 712,-282 776,-282 776,-258 712,-258"/>
<text text-anchor="start" x="715" y="-266.2" font-family="Times,serif" font-size="16.00">orange</text>
<polygon fill="none" stroke="black" points="483,-234 483,-258 712,-258 712,-234 483,-234"/>
<text text-anchor="start" x="530" y="-242.2" font-family="Times,serif" font-size="16.00" fill="green">seL4TimeServer</text>
<polygon fill="green" stroke="transparent" points="712,-234 712,-258 776,-258 776,-234 712,-234"/>
<polygon fill="none" stroke="black" points="712,-234 712,-258 776,-258 776,-234 712,-234"/>
<text text-anchor="start" x="719.5" y="-242.2" font-family="Times,serif" font-size="16.00">green</text>
<polygon fill="none" stroke="black" points="483,-210 483,-234 712,-234 712,-210 483,-210"/>
<text text-anchor="start" x="486" y="-218.2" font-family="Times,serif" font-size="16.00" fill="brown">seL4GlobalAsynchCallback</text>
<polygon fill="brown" stroke="transparent" points="712,-210 712,-234 776,-234 776,-210 712,-210"/>
<polygon fill="none" stroke="black" points="712,-210 712,-234 776,-234 776,-210 712,-210"/>
<text text-anchor="start" x="718" y="-218.2" font-family="Times,serif" font-size="16.00">brown</text>
<polygon fill="none" stroke="black" points="483,-186 483,-210 712,-210 712,-186 483,-186"/>
<text text-anchor="start" x="495" y="-194.2" font-family="Times,serif" font-size="16.00" fill="yellow">seL4VMDTBPassthrough</text>
<polygon fill="yellow" stroke="transparent" points="712,-186 712,-210 776,-210 776,-186 712,-186"/>
<polygon fill="none" stroke="black" points="712,-186 712,-210 776,-210 776,-186 712,-186"/>
<text text-anchor="start" x="717.5" y="-194.2" font-family="Times,serif" font-size="16.00">yellow</text>
<polygon fill="none" stroke="black" points="483,-162 483,-186 712,-186 712,-162 483,-162"/>
<text text-anchor="start" x="489" y="-170.2" font-family="Times,serif" font-size="16.00" fill="pink">seL4SharedDataWithCaps</text>
<polygon fill="pink" stroke="transparent" points="712,-162 712,-186 776,-186 776,-162 712,-162"/>
<polygon fill="none" stroke="black" points="712,-162 712,-186 776,-186 776,-162 712,-162"/>
<text text-anchor="start" x="725.5" y="-170.2" font-family="Times,serif" font-size="16.00">pink</text>
</g>
<!-- interfacetypekey -->
<g id="node5" class="node">
<title>interfacetypekey</title>
<polygon fill="none" stroke="black" points="534,-500 534,-524 724,-524 724,-500 534,-500"/>
<text text-anchor="start" x="537" y="-509.2" font-family="Times,serif" font-weight="bold" font-size="16.00">Key: Interface Types</text>
<polygon fill="none" stroke="black" points="534,-476 534,-500 641,-500 641,-476 534,-476"/>
<text text-anchor="start" x="551.5" y="-484.2" font-family="Times,serif" font-size="16.00" fill="red">dataport</text>
<polygon fill="red" stroke="transparent" points="641,-476 641,-500 724,-500 724,-476 641,-476"/>
<polygon fill="none" stroke="black" points="641,-476 641,-500 724,-500 724,-476 641,-476"/>
<text text-anchor="start" x="668.5" y="-484.2" font-family="Times,serif" font-size="16.00">red</text>
<polygon fill="none" stroke="black" points="534,-452 534,-476 641,-476 641,-452 534,-452"/>
<text text-anchor="start" x="564.5" y="-460.2" font-family="Times,serif" font-size="16.00" fill="blue">emits</text>
<polygon fill="blue" stroke="transparent" points="641,-452 641,-476 724,-476 724,-452 641,-452"/>
<polygon fill="none" stroke="black" points="641,-452 641,-476 724,-476 724,-452 641,-452"/>
<text text-anchor="start" x="664" y="-460.2" font-family="Times,serif" font-size="16.00">blue</text>
<polygon fill="none" stroke="black" points="534,-428 534,-452 641,-452 641,-428 534,-428"/>
<text text-anchor="start" x="546.5" y="-436.2" font-family="Times,serif" font-size="16.00" fill="blue">consumes</text>
<polygon fill="blue" stroke="transparent" points="641,-428 641,-452 724,-452 724,-428 641,-428"/>
<polygon fill="none" stroke="black" points="641,-428 641,-452 724,-452 724,-428 641,-428"/>
<text text-anchor="start" x="664" y="-436.2" font-family="Times,serif" font-size="16.00">blue</text>
<polygon fill="none" stroke="black" points="534,-404 534,-428 641,-428 641,-404 534,-404"/>
<text text-anchor="start" x="552" y="-412.2" font-family="Times,serif" font-size="16.00" fill="orange">provides</text>
<polygon fill="orange" stroke="transparent" points="641,-404 641,-428 724,-428 724,-404 641,-404"/>
<polygon fill="none" stroke="black" points="641,-404 641,-428 724,-428 724,-404 641,-404"/>
<text text-anchor="start" x="653.5" y="-412.2" font-family="Times,serif" font-size="16.00">orange</text>
<polygon fill="none" stroke="black" points="534,-380 534,-404 641,-404 641,-380 534,-380"/>
<text text-anchor="start" x="569" y="-388.2" font-family="Times,serif" font-size="16.00" fill="orange">uses</text>
<polygon fill="orange" stroke="transparent" points="641,-380 641,-404 724,-404 724,-380 641,-380"/>
<polygon fill="none" stroke="black" points="641,-380 641,-404 724,-404 724,-380 641,-380"/>
<text text-anchor="start" x="653.5" y="-388.2" font-family="Times,serif" font-size="16.00">orange</text>
</g>
</g>
</svg>
