<?xml version="1.0" encoding="UTF-8" standalone="no"?>
<!DOCTYPE svg PUBLIC "-//W3C//DTD SVG 1.1//EN"
 "http://www.w3.org/Graphics/SVG/1.1/DTD/svg11.dtd">
<!-- Generated by graphviz version 2.43.0 (0)
 -->
<!-- Title: %3 Pages: 1 -->
<svg width="745pt" height="409pt"
 viewBox="0.00 0.00 745.00 409.00" xmlns="http://www.w3.org/2000/svg" xmlns:xlink="http://www.w3.org/1999/xlink">
<g id="graph0" class="graph" transform="scale(1 1) rotate(0) translate(4 405)">
<title>%3</title>
<polygon fill="white" stroke="transparent" points="-4,4 -4,-405 741,-405 741,4 -4,4"/>
<!-- producer_producer -->
<g id="node1" class="node">
<title>producer_producer</title>
<path fill="none" stroke="black" d="M725,-401C725,-401 368,-401 368,-401 362,-401 356,-395 356,-389 356,-389 356,-377 356,-377 356,-371 362,-365 368,-365 368,-365 725,-365 725,-365 731,-365 737,-371 737,-377 737,-377 737,-389 737,-389 737,-395 731,-401 725,-401"/>
<text text-anchor="middle" x="546.5" y="-379.3" font-family="Times,serif" font-size="14.00">producer_producer::producer_t_producer_producer</text>
</g>
<!-- filter_filter -->
<g id="node2" class="node">
<title>filter_filter</title>
<path fill="none" stroke="black" d="M484,-255C484,-255 277,-255 277,-255 271,-255 265,-249 265,-243 265,-243 265,-231 265,-231 265,-225 271,-219 277,-219 277,-219 484,-219 484,-219 490,-219 496,-225 496,-231 496,-231 496,-243 496,-243 496,-249 490,-255 484,-255"/>
<text text-anchor="middle" x="380.5" y="-233.3" font-family="Times,serif" font-size="14.00">filter_filter::filter_t_filter_filter</text>
</g>
<!-- producer_producer&#45;&gt;filter_filter -->
<g id="edge3" class="edge">
<title>producer_producer&#45;&gt;filter_filter</title>
<path fill="none" stroke="black" d="M417.89,-360.65C402.11,-352.82 387.9,-342.24 377.5,-328 364.37,-310.02 366.78,-284.19 371.5,-264.82"/>
<polygon fill="none" stroke="black" points="429.01,-361.31 425.69,-368.59 418.41,-365.28 421.72,-358 429.01,-361.31"/>
<polyline fill="none" stroke="black" points="420.07,-361.64 418.25,-360.81 "/>
<polygon fill="none" stroke="black" points="370.33,-254.01 378.04,-256.14 375.91,-263.85 368.2,-261.72 370.33,-254.01"/>
<polyline fill="none" stroke="black" points="372.06,-262.78 371.52,-264.71 "/>
<text text-anchor="middle" x="399" y="-306.3" font-family="Times,serif" font-size="14.00">conn2</text>
</g>
<!-- conn1 -->
<g id="node4" class="node">
<title>conn1</title>
<polygon fill="none" stroke="black" points="483.5,-328 429.04,-310 483.5,-292 537.96,-310 483.5,-328"/>
<text text-anchor="middle" x="483.5" y="-306.3" font-family="Times,serif" font-size="14.00">conn1</text>
</g>
<!-- producer_producer&#45;&gt;conn1 -->
<g id="edge1" class="edge">
<title>producer_producer&#45;&gt;conn1</title>
<path fill="none" stroke="black" d="M531.25,-364.81C522.43,-354.87 511.26,-342.29 501.95,-331.79"/>
<polygon fill="black" stroke="black" points="504.51,-329.41 495.26,-324.25 499.28,-334.05 504.51,-329.41"/>
</g>
<!-- conn5 -->
<g id="node6" class="node">
<title>conn5</title>
<polygon fill="none" stroke="black" points="609.5,-328 555.04,-310 609.5,-292 663.96,-310 609.5,-328"/>
<text text-anchor="middle" x="609.5" y="-306.3" font-family="Times,serif" font-size="14.00">conn5</text>
</g>
<!-- producer_producer&#45;&gt;conn5 -->
<g id="edge7" class="edge">
<title>producer_producer&#45;&gt;conn5</title>
<path fill="none" stroke="black" d="M555.87,-364.81C564.04,-354.38 575.81,-341.03 586.35,-330.25"/>
<polygon fill="black" stroke="black" points="589.1,-332.45 593.73,-322.92 584.16,-327.48 589.1,-332.45"/>
</g>
<!-- consumer_consumer -->
<g id="node3" class="node">
<title>consumer_consumer</title>
<path fill="none" stroke="black" d="M395,-109C395,-109 12,-109 12,-109 6,-109 0,-103 0,-97 0,-97 0,-85 0,-85 0,-79 6,-73 12,-73 12,-73 395,-73 395,-73 401,-73 407,-79 407,-85 407,-85 407,-97 407,-97 407,-103 401,-109 395,-109"/>
<text text-anchor="middle" x="203.5" y="-87.3" font-family="Times,serif" font-size="14.00">consumer_consumer::consumer_t_consumer_consumer</text>
</g>
<!-- filter_filter&#45;&gt;consumer_consumer -->
<g id="edge6" class="edge">
<title>filter_filter&#45;&gt;consumer_consumer</title>
<path fill="none" stroke="black" d="M278.64,-216.52C243.76,-207.62 210.87,-195.94 200.5,-182 187.21,-164.14 189.63,-138.3 194.4,-118.88"/>
<polygon fill="none" stroke="black" points="289.47,-215.07 287.55,-222.84 279.78,-220.92 281.7,-213.15 289.47,-215.07"/>
<polyline fill="none" stroke="black" points="280.74,-217.04 278.8,-216.56 "/>
<polygon fill="none" stroke="black" points="193.27,-108.05 200.98,-110.2 198.83,-117.9 191.12,-115.76 193.27,-108.05"/>
<polyline fill="none" stroke="black" points="194.97,-116.83 194.44,-118.76 "/>
<text text-anchor="middle" x="222" y="-160.3" font-family="Times,serif" font-size="14.00">conn4</text>
</g>
<!-- conn3 -->
<g id="node5" class="node">
<title>conn3</title>
<polygon fill="none" stroke="black" points="306.5,-182 252.04,-164 306.5,-146 360.96,-164 306.5,-182"/>
<text text-anchor="middle" x="306.5" y="-160.3" font-family="Times,serif" font-size="14.00">conn3</text>
</g>
<!-- filter_filter&#45;&gt;conn3 -->
<g id="edge4" class="edge">
<title>filter_filter&#45;&gt;conn3</title>
<path fill="none" stroke="black" d="M362.59,-218.81C351.88,-208.54 338.24,-195.46 327.1,-184.76"/>
<polygon fill="black" stroke="black" points="329.48,-182.2 319.84,-177.8 324.63,-187.25 329.48,-182.2"/>
</g>
<!-- conn6 -->
<g id="node7" class="node">
<title>conn6</title>
<polygon fill="none" stroke="black" points="432.5,-182 378.04,-164 432.5,-146 486.96,-164 432.5,-182"/>
<text text-anchor="middle" x="432.5" y="-160.3" font-family="Times,serif" font-size="14.00">conn6</text>
</g>
<!-- filter_filter&#45;&gt;conn6 -->
<g id="edge9" class="edge">
<title>filter_filter&#45;&gt;conn6</title>
<path fill="none" stroke="black" d="M387.21,-218.81C393.55,-208.71 402.85,-195.88 411.48,-185.28"/>
<polygon fill="black" stroke="black" points="414.4,-187.25 418.18,-177.36 409.05,-182.73 414.4,-187.25"/>
</g>
<!-- conn7 -->
<g id="node8" class="node">
<title>conn7</title>
<polygon fill="none" stroke="black" points="203.5,-36 149.04,-18 203.5,0 257.96,-18 203.5,-36"/>
<text text-anchor="middle" x="203.5" y="-14.3" font-family="Times,serif" font-size="14.00">conn7</text>
</g>
<!-- consumer_consumer&#45;&gt;conn7 -->
<g id="edge11" class="edge">
<title>consumer_consumer&#45;&gt;conn7</title>
<path fill="none" stroke="black" d="M197.62,-72.81C196.74,-64.34 196.53,-53.96 196.99,-44.58"/>
<polygon fill="black" stroke="black" points="200.48,-44.83 197.8,-34.58 193.5,-44.26 200.48,-44.83"/>
</g>
<!-- conn1&#45;&gt;filter_filter -->
<g id="edge2" class="edge">
<title>conn1&#45;&gt;filter_filter</title>
<path fill="none" stroke="black" d="M466.49,-297.28C452.15,-287.39 431.21,-272.96 413.59,-260.81"/>
<polygon fill="black" stroke="black" points="415.46,-257.85 405.24,-255.06 411.49,-263.61 415.46,-257.85"/>
</g>
<!-- conn3&#45;&gt;consumer_consumer -->
<g id="edge5" class="edge">
<title>conn3&#45;&gt;consumer_consumer</title>
<path fill="none" stroke="black" d="M289.49,-151.28C275.15,-141.39 254.21,-126.96 236.59,-114.81"/>
<polygon fill="black" stroke="black" points="238.46,-111.85 228.24,-109.06 234.49,-117.61 238.46,-111.85"/>
</g>
<!-- conn5&#45;&gt;producer_producer -->
<g id="edge8" class="edge">
<title>conn5&#45;&gt;producer_producer</title>
<path fill="none" stroke="black" d="M602.1,-325.63C595.14,-334.79 584.76,-346.82 574.77,-357.41"/>
<polygon fill="black" stroke="black" points="572.06,-355.19 567.63,-364.81 577.09,-360.05 572.06,-355.19"/>
</g>
<!-- conn6&#45;&gt;filter_filter -->
<g id="edge10" class="edge">
<title>conn6&#45;&gt;filter_filter</title>
<path fill="none" stroke="black" d="M426.79,-180.58C421.32,-189.49 413.23,-200.89 405.27,-211.02"/>
<polygon fill="black" stroke="black" points="402.54,-208.84 398.97,-218.81 407.98,-213.24 402.54,-208.84"/>
</g>
<!-- conn7&#45;&gt;consumer_consumer -->
<g id="edge12" class="edge">
<title>conn7&#45;&gt;consumer_consumer</title>
<path fill="none" stroke="black" d="M209.2,-34.58C210.17,-42.79 210.47,-53.1 210.09,-62.59"/>
<polygon fill="black" stroke="black" points="206.58,-62.59 209.38,-72.81 213.57,-63.08 206.58,-62.59"/>
</g>
</g>
</svg>
