<?xml version="1.0" encoding="UTF-8" standalone="no"?>
<!DOCTYPE svg PUBLIC "-//W3C//DTD SVG 1.1//EN"
 "http://www.w3.org/Graphics/SVG/1.1/DTD/svg11.dtd">
<!-- Generated by graphviz version 2.43.0 (0)
 -->
<!-- Title: g Pages: 1 -->
<svg width="2659pt" height="740pt"
 viewBox="0.00 0.00 2659.00 740.00" xmlns="http://www.w3.org/2000/svg" xmlns:xlink="http://www.w3.org/1999/xlink">
<g id="graph0" class="graph" transform="scale(1 1) rotate(0) translate(4 736)">
<title>g</title>
<polygon fill="white" stroke="transparent" points="-4,4 -4,-736 2655,-736 2655,4 -4,4"/>
<!-- uxas_UxAS_thread -->
<g id="node1" class="node">
<title>uxas_UxAS_thread</title>
<polygon fill="none" stroke="black" points="1969,-292 1969,-316 2643,-316 2643,-292 1969,-292"/>
<text text-anchor="start" x="2223" y="-301.2" font-family="Times,serif" font-weight="bold" font-size="16.00">uxas_UxAS_thread</text>
<polygon fill="none" stroke="black" points="1969,-268 1969,-292 2643,-292 2643,-268 1969,-268"/>
<text text-anchor="start" x="1972" y="-277.2" font-family="Times,serif" font-size="16.00" fill="red">dataport sb_queue_union_art_DataContent_1_t </text>
<text text-anchor="start" x="2366" y="-277.2" font-family="Times,serif" font-weight="bold" font-size="16.00" fill="red">sb_AutomationRequest_queue</text>
<polygon fill="none" stroke="black" points="1969,-244 1969,-268 2643,-268 2643,-244 1969,-244"/>
<text text-anchor="start" x="1984.5" y="-253.2" font-family="Times,serif" font-size="16.00" fill="red">dataport sb_queue_union_art_DataContent_1_t </text>
<text text-anchor="start" x="2378.5" y="-253.2" font-family="Times,serif" font-weight="bold" font-size="16.00" fill="red">sb_OperatingRegion_queue</text>
<polygon fill="none" stroke="black" points="1969,-220 1969,-244 2643,-244 2643,-220 1969,-220"/>
<text text-anchor="start" x="1990.5" y="-229.2" font-family="Times,serif" font-size="16.00" fill="red">dataport sb_queue_union_art_DataContent_1_t </text>
<text text-anchor="start" x="2384.5" y="-229.2" font-family="Times,serif" font-weight="bold" font-size="16.00" fill="red">sb_LineSearchTask_queue</text>
<polygon fill="none" stroke="black" points="1969,-196 1969,-220 2643,-220 2643,-196 1969,-196"/>
<text text-anchor="start" x="2160" y="-205.2" font-family="Times,serif" font-size="16.00" fill="blue">emits TickTock </text>
<text text-anchor="start" x="2289" y="-205.2" font-family="Times,serif" font-weight="bold" font-size="16.00" fill="blue">sb_self_pacer_tick</text>
<polygon fill="none" stroke="black" points="1969,-172 1969,-196 2643,-196 2643,-172 1969,-172"/>
<text text-anchor="start" x="2042.5" y="-181.2" font-family="Times,serif" font-size="16.00" fill="blue">consumes ReceiveEvent </text>
<text text-anchor="start" x="2247.5" y="-181.2" font-family="Times,serif" font-weight="bold" font-size="16.00" fill="blue">sb_AutomationRequest_notification</text>
<polygon fill="none" stroke="black" points="1969,-148 1969,-172 2643,-172 2643,-148 1969,-148"/>
<text text-anchor="start" x="2055" y="-157.2" font-family="Times,serif" font-size="16.00" fill="blue">consumes ReceiveEvent </text>
<text text-anchor="start" x="2260" y="-157.2" font-family="Times,serif" font-weight="bold" font-size="16.00" fill="blue">sb_OperatingRegion_notification</text>
<polygon fill="none" stroke="black" points="1969,-124 1969,-148 2643,-148 2643,-124 1969,-124"/>
<text text-anchor="start" x="2061" y="-133.2" font-family="Times,serif" font-size="16.00" fill="blue">consumes ReceiveEvent </text>
<text text-anchor="start" x="2266" y="-133.2" font-family="Times,serif" font-weight="bold" font-size="16.00" fill="blue">sb_LineSearchTask_notification</text>
<polygon fill="none" stroke="black" points="1969,-100 1969,-124 2643,-124 2643,-100 1969,-100"/>
<text text-anchor="start" x="2140" y="-109.2" font-family="Times,serif" font-size="16.00" fill="blue">consumes TickTock </text>
<text text-anchor="start" x="2305" y="-109.2" font-family="Times,serif" font-weight="bold" font-size="16.00" fill="blue">sb_self_pacer_tock</text>
</g>
<!-- uxas_UxAS_thread&#45;&gt;uxas_UxAS_thread -->
<g id="conn14" class="edge">
<title>uxas_UxAS_thread:sb_self_pacer_tick&#45;&gt;uxas_UxAS_thread:sb_self_pacer_tock</title>
<path fill="none" stroke="blue" d="M1968.98,-211.76C1770.26,-208.86 1584,-195.46 1584,-160 1584,-125.15 1763.95,-111.61 1958.81,-108.4"/>
<polygon fill="blue" stroke="blue" points="1959.04,-111.9 1968.98,-108.24 1958.93,-104.9 1959.04,-111.9"/>
</g>
<!-- radio_RadioDriver -->
<g id="node2" class="node">
<title>radio_RadioDriver</title>
<polygon fill="none" stroke="black" points="400.5,-316 400.5,-340 1133.5,-340 1133.5,-316 400.5,-316"/>
<text text-anchor="start" x="685.5" y="-325.2" font-family="Times,serif" font-weight="bold" font-size="16.00">radio_RadioDriver</text>
<polygon fill="none" stroke="black" points="400.5,-292 400.5,-316 1133.5,-316 1133.5,-292 400.5,-292"/>
<text text-anchor="start" x="525" y="-301.2" font-family="Times,serif" font-size="16.00" fill="red">dataport sp_union_art_DataContent_t </text>
<text text-anchor="start" x="841" y="-301.2" font-family="Times,serif" font-weight="bold" font-size="16.00" fill="red">sb_trusted_ids_out</text>
<polygon fill="none" stroke="black" points="400.5,-268 400.5,-292 1133.5,-292 1133.5,-268 400.5,-268"/>
<text text-anchor="start" x="403.5" y="-277.2" font-family="Times,serif" font-size="16.00" fill="red">dataport sb_queue_union_art_DataContent_1_t </text>
<text text-anchor="start" x="797.5" y="-277.2" font-family="Times,serif" font-weight="bold" font-size="16.00" fill="red">sb_automation_request_out_queue_1</text>
<polygon fill="none" stroke="black" points="400.5,-244 400.5,-268 1133.5,-268 1133.5,-244 400.5,-244"/>
<text text-anchor="start" x="417" y="-253.2" font-family="Times,serif" font-size="16.00" fill="red">dataport sb_queue_union_art_DataContent_1_t </text>
<text text-anchor="start" x="811" y="-253.2" font-family="Times,serif" font-weight="bold" font-size="16.00" fill="red">sb_operating_region_out_queue_1</text>
<polygon fill="none" stroke="black" points="400.5,-220 400.5,-244 1133.5,-244 1133.5,-220 400.5,-220"/>
<text text-anchor="start" x="419.5" y="-229.2" font-family="Times,serif" font-size="16.00" fill="red">dataport sb_queue_union_art_DataContent_1_t </text>
<text text-anchor="start" x="813.5" y="-229.2" font-family="Times,serif" font-weight="bold" font-size="16.00" fill="red">sb_line_search_task_out_queue_1</text>
<polygon fill="none" stroke="black" points="400.5,-196 400.5,-220 1133.5,-220 1133.5,-196 400.5,-196"/>
<text text-anchor="start" x="492" y="-205.2" font-family="Times,serif" font-size="16.00" fill="blue">emits ReceiveEvent </text>
<text text-anchor="start" x="661" y="-205.2" font-family="Times,serif" font-weight="bold" font-size="16.00" fill="blue">sb_automation_request_out_1_notification</text>
<polygon fill="none" stroke="black" points="400.5,-172 400.5,-196 1133.5,-196 1133.5,-172 400.5,-172"/>
<text text-anchor="start" x="505.5" y="-181.2" font-family="Times,serif" font-size="16.00" fill="blue">emits ReceiveEvent </text>
<text text-anchor="start" x="674.5" y="-181.2" font-family="Times,serif" font-weight="bold" font-size="16.00" fill="blue">sb_operating_region_out_1_notification</text>
<polygon fill="none" stroke="black" points="400.5,-148 400.5,-172 1133.5,-172 1133.5,-148 400.5,-148"/>
<text text-anchor="start" x="508" y="-157.2" font-family="Times,serif" font-size="16.00" fill="blue">emits ReceiveEvent </text>
<text text-anchor="start" x="677" y="-157.2" font-family="Times,serif" font-weight="bold" font-size="16.00" fill="blue">sb_line_search_task_out_1_notification</text>
<polygon fill="none" stroke="black" points="400.5,-124 400.5,-148 1133.5,-148 1133.5,-124 400.5,-124"/>
<text text-anchor="start" x="621" y="-133.2" font-family="Times,serif" font-size="16.00" fill="blue">emits TickTock </text>
<text text-anchor="start" x="750" y="-133.2" font-family="Times,serif" font-weight="bold" font-size="16.00" fill="blue">sb_self_pacer_tick</text>
<polygon fill="none" stroke="black" points="400.5,-100 400.5,-124 1133.5,-124 1133.5,-100 400.5,-100"/>
<text text-anchor="start" x="601" y="-109.2" font-family="Times,serif" font-size="16.00" fill="blue">consumes TickTock </text>
<text text-anchor="start" x="766" y="-109.2" font-family="Times,serif" font-weight="bold" font-size="16.00" fill="blue">sb_self_pacer_tock</text>
</g>
<!-- radio_RadioDriver&#45;&gt;radio_RadioDriver -->
<g id="conn15" class="edge">
<title>radio_RadioDriver:sb_self_pacer_tick&#45;&gt;radio_RadioDriver:sb_self_pacer_tock</title>
<path fill="none" stroke="blue" d="M400.45,-141.71C192.57,-141.86 0,-136.88 0,-124 0,-111.33 186.41,-106.3 390.41,-106.29"/>
<polygon fill="blue" stroke="blue" points="390.44,-109.79 400.45,-106.29 390.45,-102.79 390.44,-109.79"/>
</g>
<!-- am_gate_CASE_AttestationGate -->
<g id="node3" class="node">
<title>am_gate_CASE_AttestationGate</title>
<polygon fill="none" stroke="black" points="1185,-364 1185,-388 1917,-388 1917,-364 1185,-364"/>
<text text-anchor="start" x="1409" y="-373.2" font-family="Times,serif" font-weight="bold" font-size="16.00">am_gate_CASE_AttestationGate</text>
<polygon fill="none" stroke="black" points="1185,-340 1185,-364 1917,-364 1917,-340 1185,-340"/>
<text text-anchor="start" x="1328" y="-349.2" font-family="Times,serif" font-size="16.00" fill="red">dataport sp_union_art_DataContent_t </text>
<text text-anchor="start" x="1644" y="-349.2" font-family="Times,serif" font-weight="bold" font-size="16.00" fill="red">sb_trusted_ids</text>
<polygon fill="none" stroke="black" points="1185,-316 1185,-340 1917,-340 1917,-316 1185,-316"/>
<text text-anchor="start" x="1203.5" y="-325.2" font-family="Times,serif" font-size="16.00" fill="red">dataport sb_queue_union_art_DataContent_1_t </text>
<text text-anchor="start" x="1597.5" y="-325.2" font-family="Times,serif" font-weight="bold" font-size="16.00" fill="red">sb_AutomationRequest_in_queue</text>
<polygon fill="none" stroke="black" points="1185,-292 1185,-316 1917,-316 1917,-292 1185,-292"/>
<text text-anchor="start" x="1188" y="-301.2" font-family="Times,serif" font-size="16.00" fill="red">dataport sb_queue_union_art_DataContent_1_t </text>
<text text-anchor="start" x="1582" y="-301.2" font-family="Times,serif" font-weight="bold" font-size="16.00" fill="red">sb_AutomationRequest_out_queue_1</text>
<polygon fill="none" stroke="black" points="1185,-268 1185,-292 1917,-292 1917,-268 1185,-268"/>
<text text-anchor="start" x="1216.5" y="-277.2" font-family="Times,serif" font-size="16.00" fill="red">dataport sb_queue_union_art_DataContent_1_t </text>
<text text-anchor="start" x="1610.5" y="-277.2" font-family="Times,serif" font-weight="bold" font-size="16.00" fill="red">sb_OperatingRegion_in_queue</text>
<polygon fill="none" stroke="black" points="1185,-244 1185,-268 1917,-268 1917,-244 1185,-244"/>
<text text-anchor="start" x="1200.5" y="-253.2" font-family="Times,serif" font-size="16.00" fill="red">dataport sb_queue_union_art_DataContent_1_t </text>
<text text-anchor="start" x="1594.5" y="-253.2" font-family="Times,serif" font-weight="bold" font-size="16.00" fill="red">sb_OperatingRegion_out_queue_1</text>
<polygon fill="none" stroke="black" points="1185,-220 1185,-244 1917,-244 1917,-220 1185,-220"/>
<text text-anchor="start" x="1222.5" y="-229.2" font-family="Times,serif" font-size="16.00" fill="red">dataport sb_queue_union_art_DataContent_1_t </text>
<text text-anchor="start" x="1616.5" y="-229.2" font-family="Times,serif" font-weight="bold" font-size="16.00" fill="red">sb_LineSearchTask_in_queue</text>
<polygon fill="none" stroke="black" points="1185,-196 1185,-220 1917,-220 1917,-196 1185,-196"/>
<text text-anchor="start" x="1206.5" y="-205.2" font-family="Times,serif" font-size="16.00" fill="red">dataport sb_queue_union_art_DataContent_1_t </text>
<text text-anchor="start" x="1600.5" y="-205.2" font-family="Times,serif" font-weight="bold" font-size="16.00" fill="red">sb_LineSearchTask_out_queue_1</text>
<polygon fill="none" stroke="black" points="1185,-172 1185,-196 1917,-196 1917,-172 1185,-172"/>
<text text-anchor="start" x="1276.5" y="-181.2" font-family="Times,serif" font-size="16.00" fill="blue">emits ReceiveEvent </text>
<text text-anchor="start" x="1445.5" y="-181.2" font-family="Times,serif" font-weight="bold" font-size="16.00" fill="blue">sb_AutomationRequest_out_1_notification</text>
<polygon fill="none" stroke="black" points="1185,-148 1185,-172 1917,-172 1917,-148 1185,-148"/>
<text text-anchor="start" x="1289" y="-157.2" font-family="Times,serif" font-size="16.00" fill="blue">emits ReceiveEvent </text>
<text text-anchor="start" x="1458" y="-157.2" font-family="Times,serif" font-weight="bold" font-size="16.00" fill="blue">sb_OperatingRegion_out_1_notification</text>
<polygon fill="none" stroke="black" points="1185,-124 1185,-148 1917,-148 1917,-124 1185,-124"/>
<text text-anchor="start" x="1295" y="-133.2" font-family="Times,serif" font-size="16.00" fill="blue">emits ReceiveEvent </text>
<text text-anchor="start" x="1464" y="-133.2" font-family="Times,serif" font-weight="bold" font-size="16.00" fill="blue">sb_LineSearchTask_out_1_notification</text>
<polygon fill="none" stroke="black" points="1185,-100 1185,-124 1917,-124 1917,-100 1185,-100"/>
<text text-anchor="start" x="1405" y="-109.2" font-family="Times,serif" font-size="16.00" fill="blue">emits TickTock </text>
<text text-anchor="start" x="1534" y="-109.2" font-family="Times,serif" font-weight="bold" font-size="16.00" fill="blue">sb_self_pacer_tick</text>
<polygon fill="none" stroke="black" points="1185,-76 1185,-100 1917,-100 1917,-76 1185,-76"/>
<text text-anchor="start" x="1274" y="-85.2" font-family="Times,serif" font-size="16.00" fill="blue">consumes ReceiveEvent </text>
<text text-anchor="start" x="1479" y="-85.2" font-family="Times,serif" font-weight="bold" font-size="16.00" fill="blue">sb_AutomationRequest_in_notification</text>
<polygon fill="none" stroke="black" points="1185,-52 1185,-76 1917,-76 1917,-52 1185,-52"/>
<text text-anchor="start" x="1287" y="-61.2" font-family="Times,serif" font-size="16.00" fill="blue">consumes ReceiveEvent </text>
<text text-anchor="start" x="1492" y="-61.2" font-family="Times,serif" font-weight="bold" font-size="16.00" fill="blue">sb_OperatingRegion_in_notification</text>
<polygon fill="none" stroke="black" points="1185,-28 1185,-52 1917,-52 1917,-28 1185,-28"/>
<text text-anchor="start" x="1293" y="-37.2" font-family="Times,serif" font-size="16.00" fill="blue">consumes ReceiveEvent </text>
<text text-anchor="start" x="1498" y="-37.2" font-family="Times,serif" font-weight="bold" font-size="16.00" fill="blue">sb_LineSearchTask_in_notification</text>
<polygon fill="none" stroke="black" points="1185,-4 1185,-28 1917,-28 1917,-4 1185,-4"/>
<text text-anchor="start" x="1385" y="-13.2" font-family="Times,serif" font-size="16.00" fill="blue">consumes TickTock </text>
<text text-anchor="start" x="1550" y="-13.2" font-family="Times,serif" font-weight="bold" font-size="16.00" fill="blue">sb_self_pacer_tock</text>
</g>
<!-- radio_RadioDriver&#45;&gt;am_gate_CASE_AttestationGate -->
<g id="conn1" class="edge">
<title>radio_RadioDriver:sb_trusted_ids_out&#45;&gt;am_gate_CASE_AttestationGate:sb_trusted_ids</title>
<path fill="none" stroke="red" d="M1134.5,-304C1161.07,-304 1155.74,-340.1 1173.84,-349.68"/>
<polygon fill="red" stroke="red" points="1173.47,-353.19 1184,-352 1175.03,-346.37 1173.47,-353.19"/>
</g>
<!-- radio_RadioDriver&#45;&gt;am_gate_CASE_AttestationGate -->
<g id="conn2" class="edge">
<title>radio_RadioDriver:sb_automation_request_out_1_notification&#45;&gt;am_gate_CASE_AttestationGate:sb_AutomationRequest_in_notification</title>
<path fill="none" stroke="blue" d="M1134.5,-208C1188.36,-208 1134.51,-103.41 1174.07,-89.52"/>
<polygon fill="blue" stroke="blue" points="1174.64,-92.97 1184,-88 1173.59,-86.05 1174.64,-92.97"/>
</g>
<!-- radio_RadioDriver&#45;&gt;am_gate_CASE_AttestationGate -->
<g id="conn3" class="edge">
<title>radio_RadioDriver:sb_automation_request_out_queue_1&#45;&gt;am_gate_CASE_AttestationGate:sb_AutomationRequest_in_queue</title>
<path fill="none" stroke="red" d="M1134.5,-280C1161.07,-280 1155.74,-316.1 1173.84,-325.68"/>
<polygon fill="red" stroke="red" points="1173.47,-329.19 1184,-328 1175.03,-322.37 1173.47,-329.19"/>
</g>
<!-- radio_RadioDriver&#45;&gt;am_gate_CASE_AttestationGate -->
<g id="conn4" class="edge">
<title>radio_RadioDriver:sb_operating_region_out_1_notification&#45;&gt;am_gate_CASE_AttestationGate:sb_OperatingRegion_in_notification</title>
<path fill="none" stroke="blue" d="M1134.5,-184C1188.36,-184 1134.51,-79.41 1174.07,-65.52"/>
<polygon fill="blue" stroke="blue" points="1174.64,-68.97 1184,-64 1173.59,-62.05 1174.64,-68.97"/>
</g>
<!-- radio_RadioDriver&#45;&gt;am_gate_CASE_AttestationGate -->
<g id="conn5" class="edge">
<title>radio_RadioDriver:sb_operating_region_out_queue_1&#45;&gt;am_gate_CASE_AttestationGate:sb_OperatingRegion_in_queue</title>
<path fill="none" stroke="red" d="M1134.5,-256C1155.13,-256 1158.78,-273.09 1174.1,-278.43"/>
<polygon fill="red" stroke="red" points="1173.57,-281.88 1184,-280 1174.67,-274.97 1173.57,-281.88"/>
</g>
<!-- radio_RadioDriver&#45;&gt;am_gate_CASE_AttestationGate -->
<g id="conn6" class="edge">
<title>radio_RadioDriver:sb_line_search_task_out_1_notification&#45;&gt;am_gate_CASE_AttestationGate:sb_LineSearchTask_in_notification</title>
<path fill="none" stroke="blue" d="M1134.5,-160C1188.36,-160 1134.51,-55.41 1174.07,-41.52"/>
<polygon fill="blue" stroke="blue" points="1174.64,-44.97 1184,-40 1173.59,-38.05 1174.64,-44.97"/>
</g>
<!-- radio_RadioDriver&#45;&gt;am_gate_CASE_AttestationGate -->
<g id="conn7" class="edge">
<title>radio_RadioDriver:sb_line_search_task_out_queue_1&#45;&gt;am_gate_CASE_AttestationGate:sb_LineSearchTask_in_queue</title>
<path fill="none" stroke="red" d="M1134.5,-232C1152.72,-232 1159.62,-232 1173.95,-232"/>
<polygon fill="red" stroke="red" points="1174,-235.5 1184,-232 1174,-228.5 1174,-235.5"/>
</g>
<!-- am_gate_CASE_AttestationGate&#45;&gt;uxas_UxAS_thread -->
<g id="conn8" class="edge">
<title>am_gate_CASE_AttestationGate:sb_AutomationRequest_out_1_notification&#45;&gt;uxas_UxAS_thread:sb_AutomationRequest_notification</title>
<path fill="none" stroke="blue" d="M1918,-184C1936.4,-184 1943.38,-184 1957.85,-184"/>
<polygon fill="blue" stroke="blue" points="1958,-187.5 1968,-184 1958,-180.5 1958,-187.5"/>
</g>
<!-- am_gate_CASE_AttestationGate&#45;&gt;uxas_UxAS_thread -->
<g id="conn9" class="edge">
<title>am_gate_CASE_AttestationGate:sb_AutomationRequest_out_queue_1&#45;&gt;uxas_UxAS_thread:sb_AutomationRequest_queue</title>
<path fill="none" stroke="red" d="M1918,-304C1938.8,-304 1942.55,-286.91 1958.02,-281.57"/>
<polygon fill="red" stroke="red" points="1958.67,-285.02 1968,-280 1957.58,-278.1 1958.67,-285.02"/>
</g>
<!-- am_gate_CASE_AttestationGate&#45;&gt;uxas_UxAS_thread -->
<g id="conn10" class="edge">
<title>am_gate_CASE_AttestationGate:sb_OperatingRegion_out_1_notification&#45;&gt;uxas_UxAS_thread:sb_OperatingRegion_notification</title>
<path fill="none" stroke="blue" d="M1918,-160C1936.4,-160 1943.38,-160 1957.85,-160"/>
<polygon fill="blue" stroke="blue" points="1958,-163.5 1968,-160 1958,-156.5 1958,-163.5"/>
</g>
<!-- am_gate_CASE_AttestationGate&#45;&gt;uxas_UxAS_thread -->
<g id="conn11" class="edge">
<title>am_gate_CASE_AttestationGate:sb_OperatingRegion_out_queue_1&#45;&gt;uxas_UxAS_thread:sb_OperatingRegion_queue</title>
<path fill="none" stroke="red" d="M1918,-256C1936.4,-256 1943.38,-256 1957.85,-256"/>
<polygon fill="red" stroke="red" points="1958,-259.5 1968,-256 1958,-252.5 1958,-259.5"/>
</g>
<!-- am_gate_CASE_AttestationGate&#45;&gt;uxas_UxAS_thread -->
<g id="conn12" class="edge">
<title>am_gate_CASE_AttestationGate:sb_LineSearchTask_out_1_notification&#45;&gt;uxas_UxAS_thread:sb_LineSearchTask_notification</title>
<path fill="none" stroke="blue" d="M1918,-136C1936.4,-136 1943.38,-136 1957.85,-136"/>
<polygon fill="blue" stroke="blue" points="1958,-139.5 1968,-136 1958,-132.5 1958,-139.5"/>
</g>
<!-- am_gate_CASE_AttestationGate&#45;&gt;uxas_UxAS_thread -->
<g id="conn13" class="edge">
<title>am_gate_CASE_AttestationGate:sb_LineSearchTask_out_queue_1&#45;&gt;uxas_UxAS_thread:sb_LineSearchTask_queue</title>
<path fill="none" stroke="red" d="M1918,-208C1938.8,-208 1942.55,-225.09 1958.02,-230.43"/>
<polygon fill="red" stroke="red" points="1957.58,-233.9 1968,-232 1958.67,-226.98 1957.58,-233.9"/>
</g>
<!-- am_gate_CASE_AttestationGate&#45;&gt;am_gate_CASE_AttestationGate -->
<g id="conn16" class="edge">
<title>am_gate_CASE_AttestationGate:sb_self_pacer_tick&#45;&gt;am_gate_CASE_AttestationGate:sb_self_pacer_tock</title>
<path fill="none" stroke="blue" d="M1184.9,-115.52C984.13,-112.17 800,-98.57 800,-64 800,-30.02 977.89,-16.3 1174.62,-12.66"/>
<polygon fill="blue" stroke="blue" points="1174.96,-16.16 1184.9,-12.48 1174.84,-9.16 1174.96,-16.16"/>
</g>
<!-- connectiontypekey -->
<g id="node4" class="node">
<title>connectiontypekey</title>
<polygon fill="none" stroke="black" points="620.5,-534 620.5,-558 913.5,-558 913.5,-534 620.5,-534"/>
<text text-anchor="start" x="665" y="-543.2" font-family="Times,serif" font-weight="bold" font-size="16.00">Key: Connection Types</text>
<polygon fill="none" stroke="black" points="620.5,-510 620.5,-534 849.5,-534 849.5,-510 620.5,-510"/>
<text text-anchor="start" x="666" y="-518.2" font-family="Times,serif" font-size="16.00" fill="red">seL4SharedData</text>
<polygon fill="red" stroke="transparent" points="849.5,-510 849.5,-534 913.5,-534 913.5,-510 849.5,-510"/>
<polygon fill="none" stroke="black" points="849.5,-510 849.5,-534 913.5,-534 913.5,-510 849.5,-510"/>
<text text-anchor="start" x="867.5" y="-518.2" font-family="Times,serif" font-size="16.00">red</text>
<polygon fill="none" stroke="black" points="620.5,-486 620.5,-510 849.5,-510 849.5,-486 620.5,-486"/>
<text text-anchor="start" x="666.5" y="-494.2" font-family="Times,serif" font-size="16.00" fill="blue">seL4Notification</text>
<polygon fill="blue" stroke="transparent" points="849.5,-486 849.5,-510 913.5,-510 913.5,-486 849.5,-486"/>
<polygon fill="none" stroke="black" points="849.5,-486 849.5,-510 913.5,-510 913.5,-486 849.5,-486"/>
<text text-anchor="start" x="863" y="-494.2" font-family="Times,serif" font-size="16.00">blue</text>
<polygon fill="none" stroke="black" points="620.5,-462 620.5,-486 849.5,-486 849.5,-462 620.5,-462"/>
<text text-anchor="start" x="682" y="-470.2" font-family="Times,serif" font-size="16.00" fill="orange">seL4RPCCall</text>
<polygon fill="orange" stroke="transparent" points="849.5,-462 849.5,-486 913.5,-486 913.5,-462 849.5,-462"/>
<polygon fill="none" stroke="black" points="849.5,-462 849.5,-486 913.5,-486 913.5,-462 849.5,-462"/>
<text text-anchor="start" x="852.5" y="-470.2" font-family="Times,serif" font-size="16.00">orange</text>
<polygon fill="none" stroke="black" points="620.5,-438 620.5,-462 849.5,-462 849.5,-438 620.5,-438"/>
<text text-anchor="start" x="667.5" y="-446.2" font-family="Times,serif" font-size="16.00" fill="green">seL4TimeServer</text>
<polygon fill="green" stroke="transparent" points="849.5,-438 849.5,-462 913.5,-462 913.5,-438 849.5,-438"/>
<polygon fill="none" stroke="black" points="849.5,-438 849.5,-462 913.5,-462 913.5,-438 849.5,-438"/>
<text text-anchor="start" x="857" y="-446.2" font-family="Times,serif" font-size="16.00">green</text>
<polygon fill="none" stroke="black" points="620.5,-414 620.5,-438 849.5,-438 849.5,-414 620.5,-414"/>
<text text-anchor="start" x="623.5" y="-422.2" font-family="Times,serif" font-size="16.00" fill="brown">seL4GlobalAsynchCallback</text>
<polygon fill="brown" stroke="transparent" points="849.5,-414 849.5,-438 913.5,-438 913.5,-414 849.5,-414"/>
<polygon fill="none" stroke="black" points="849.5,-414 849.5,-438 913.5,-438 913.5,-414 849.5,-414"/>
<text text-anchor="start" x="855.5" y="-422.2" font-family="Times,serif" font-size="16.00">brown</text>
<polygon fill="none" stroke="black" points="620.5,-390 620.5,-414 849.5,-414 849.5,-390 620.5,-390"/>
<text text-anchor="start" x="632.5" y="-398.2" font-family="Times,serif" font-size="16.00" fill="yellow">seL4VMDTBPassthrough</text>
<polygon fill="yellow" stroke="transparent" points="849.5,-390 849.5,-414 913.5,-414 913.5,-390 849.5,-390"/>
<polygon fill="none" stroke="black" points="849.5,-390 849.5,-414 913.5,-414 913.5,-390 849.5,-390"/>
<text text-anchor="start" x="855" y="-398.2" font-family="Times,serif" font-size="16.00">yellow</text>
<polygon fill="none" stroke="black" points="620.5,-366 620.5,-390 849.5,-390 849.5,-366 620.5,-366"/>
<text text-anchor="start" x="626.5" y="-374.2" font-family="Times,serif" font-size="16.00" fill="pink">seL4SharedDataWithCaps</text>
<polygon fill="pink" stroke="transparent" points="849.5,-366 849.5,-390 913.5,-390 913.5,-366 849.5,-366"/>
<polygon fill="none" stroke="black" points="849.5,-366 849.5,-390 913.5,-390 913.5,-366 849.5,-366"/>
<text text-anchor="start" x="863" y="-374.2" font-family="Times,serif" font-size="16.00">pink</text>
</g>
<!-- interfacetypekey -->
<g id="node5" class="node">
<title>interfacetypekey</title>
<polygon fill="none" stroke="black" points="671.5,-704 671.5,-728 861.5,-728 861.5,-704 671.5,-704"/>
<text text-anchor="start" x="674.5" y="-713.2" font-family="Times,serif" font-weight="bold" font-size="16.00">Key: Interface Types</text>
<polygon fill="none" stroke="black" points="671.5,-680 671.5,-704 778.5,-704 778.5,-680 671.5,-680"/>
<text text-anchor="start" x="689" y="-688.2" font-family="Times,serif" font-size="16.00" fill="red">dataport</text>
<polygon fill="red" stroke="transparent" points="778.5,-680 778.5,-704 861.5,-704 861.5,-680 778.5,-680"/>
<polygon fill="none" stroke="black" points="778.5,-680 778.5,-704 861.5,-704 861.5,-680 778.5,-680"/>
<text text-anchor="start" x="806" y="-688.2" font-family="Times,serif" font-size="16.00">red</text>
<polygon fill="none" stroke="black" points="671.5,-656 671.5,-680 778.5,-680 778.5,-656 671.5,-656"/>
<text text-anchor="start" x="702" y="-664.2" font-family="Times,serif" font-size="16.00" fill="blue">emits</text>
<polygon fill="blue" stroke="transparent" points="778.5,-656 778.5,-680 861.5,-680 861.5,-656 778.5,-656"/>
<polygon fill="none" stroke="black" points="778.5,-656 778.5,-680 861.5,-680 861.5,-656 778.5,-656"/>
<text text-anchor="start" x="801.5" y="-664.2" font-family="Times,serif" font-size="16.00">blue</text>
<polygon fill="none" stroke="black" points="671.5,-632 671.5,-656 778.5,-656 778.5,-632 671.5,-632"/>
<text text-anchor="start" x="684" y="-640.2" font-family="Times,serif" font-size="16.00" fill="blue">consumes</text>
<polygon fill="blue" stroke="transparent" points="778.5,-632 778.5,-656 861.5,-656 861.5,-632 778.5,-632"/>
<polygon fill="none" stroke="black" points="778.5,-632 778.5,-656 861.5,-656 861.5,-632 778.5,-632"/>
<text text-anchor="start" x="801.5" y="-640.2" font-family="Times,serif" font-size="16.00">blue</text>
<polygon fill="none" stroke="black" points="671.5,-608 671.5,-632 778.5,-632 778.5,-608 671.5,-608"/>
<text text-anchor="start" x="689.5" y="-616.2" font-family="Times,serif" font-size="16.00" fill="orange">provides</text>
<polygon fill="orange" stroke="transparent" points="778.5,-608 778.5,-632 861.5,-632 861.5,-608 778.5,-608"/>
<polygon fill="none" stroke="black" points="778.5,-608 778.5,-632 861.5,-632 861.5,-608 778.5,-608"/>
<text text-anchor="start" x="791" y="-616.2" font-family="Times,serif" font-size="16.00">orange</text>
<polygon fill="none" stroke="black" points="671.5,-584 671.5,-608 778.5,-608 778.5,-584 671.5,-584"/>
<text text-anchor="start" x="706.5" y="-592.2" font-family="Times,serif" font-size="16.00" fill="orange">uses</text>
<polygon fill="orange" stroke="transparent" points="778.5,-584 778.5,-608 861.5,-608 861.5,-584 778.5,-584"/>
<polygon fill="none" stroke="black" points="778.5,-584 778.5,-608 861.5,-608 861.5,-584 778.5,-584"/>
<text text-anchor="start" x="791" y="-592.2" font-family="Times,serif" font-size="16.00">orange</text>
</g>
</g>
</svg>
