<?xml version="1.0" encoding="UTF-8" standalone="no"?>
<!DOCTYPE svg PUBLIC "-//W3C//DTD SVG 1.1//EN"
 "http://www.w3.org/Graphics/SVG/1.1/DTD/svg11.dtd">
<!-- Generated by graphviz version 2.43.0 (0)
 -->
<!-- Title: %3 Pages: 1 -->
<svg width="955pt" height="409pt"
 viewBox="0.00 0.00 955.00 409.00" xmlns="http://www.w3.org/2000/svg" xmlns:xlink="http://www.w3.org/1999/xlink">
<g id="graph0" class="graph" transform="scale(1 1) rotate(0) translate(4 405)">
<title>%3</title>
<polygon fill="white" stroke="transparent" points="-4,4 -4,-405 951,-405 951,4 -4,4"/>
<!-- uxas_UxAS_thread -->
<g id="node1" class="node">
<title>uxas_UxAS_thread</title>
<path fill="none" stroke="black" d="M395,-109C395,-109 12,-109 12,-109 6,-109 0,-103 0,-97 0,-97 0,-85 0,-85 0,-79 6,-73 12,-73 12,-73 395,-73 395,-73 401,-73 407,-79 407,-85 407,-85 407,-97 407,-97 407,-103 401,-109 395,-109"/>
<text text-anchor="middle" x="203.5" y="-87.3" font-family="Times,serif" font-size="14.00">uxas_UxAS_thread::UxAS_thr_Impl_uxas_UxAS_thread</text>
</g>
<!-- conn14 -->
<g id="node10" class="node">
<title>conn14</title>
<polygon fill="none" stroke="black" points="203.5,-36 140.99,-18 203.5,0 266.01,-18 203.5,-36"/>
<text text-anchor="middle" x="203.5" y="-14.3" font-family="Times,serif" font-size="14.00">conn14</text>
</g>
<!-- uxas_UxAS_thread&#45;&gt;conn14 -->
<g id="edge20" class="edge">
<title>uxas_UxAS_thread&#45;&gt;conn14</title>
<path fill="none" stroke="black" d="M197.62,-72.81C196.74,-64.34 196.53,-53.96 196.99,-44.58"/>
<polygon fill="black" stroke="black" points="200.48,-44.83 197.8,-34.58 193.5,-44.26 200.48,-44.83"/>
</g>
<!-- radio_RadioDriver -->
<g id="node2" class="node">
<title>radio_RadioDriver</title>
<path fill="none" stroke="black" d="M708.5,-401C708.5,-401 286.5,-401 286.5,-401 280.5,-401 274.5,-395 274.5,-389 274.5,-389 274.5,-377 274.5,-377 274.5,-371 280.5,-365 286.5,-365 286.5,-365 708.5,-365 708.5,-365 714.5,-365 720.5,-371 720.5,-377 720.5,-377 720.5,-389 720.5,-389 720.5,-395 714.5,-401 708.5,-401"/>
<text text-anchor="middle" x="497.5" y="-379.3" font-family="Times,serif" font-size="14.00">radio_RadioDriver::RadioDriver_thr_Impl_radio_RadioDriver</text>
</g>
<!-- am_gate_CASE_AttestationGate -->
<g id="node3" class="node">
<title>am_gate_CASE_AttestationGate</title>
<path fill="none" stroke="black" d="M728,-255C728,-255 37,-255 37,-255 31,-255 25,-249 25,-243 25,-243 25,-231 25,-231 25,-225 31,-219 37,-219 37,-219 728,-219 728,-219 734,-219 740,-225 740,-231 740,-231 740,-243 740,-243 740,-249 734,-255 728,-255"/>
<text text-anchor="middle" x="382.5" y="-233.3" font-family="Times,serif" font-size="14.00">am_gate_CASE_AttestationGate::CASE_AttestationGate_thr_Impl_am_gate_CASE_AttestationGate</text>
</g>
<!-- radio_RadioDriver&#45;&gt;am_gate_CASE_AttestationGate -->
<g id="edge1" class="edge">
<title>radio_RadioDriver&#45;&gt;am_gate_CASE_AttestationGate</title>
<path fill="none" stroke="black" d="M264.32,-369.43C215.16,-361.4 173.76,-348.53 159.5,-328 134.6,-292.15 167.23,-270.57 214.55,-257.59"/>
<polygon fill="none" stroke="black" points="274.86,-367.02 273.64,-374.92 265.73,-373.69 266.96,-365.79 274.86,-367.02"/>
<polyline fill="none" stroke="black" points="266.34,-369.74 264.37,-369.43 "/>
<polygon fill="none" stroke="black" points="223.53,-251.15 225.52,-258.9 217.78,-260.89 215.79,-253.14 223.53,-251.15"/>
<polyline fill="none" stroke="black" points="216.78,-257.02 214.84,-257.51 "/>
<text text-anchor="middle" x="181" y="-306.3" font-family="Times,serif" font-size="14.00">conn1</text>
</g>
<!-- radio_RadioDriver&#45;&gt;am_gate_CASE_AttestationGate -->
<g id="edge4" class="edge">
<title>radio_RadioDriver&#45;&gt;am_gate_CASE_AttestationGate</title>
<path fill="none" stroke="black" d="M317.83,-362.89C280.65,-354.92 249.41,-343.71 238.5,-328 229.37,-314.86 229.39,-305.15 238.5,-292 248.48,-277.6 262.8,-267.03 278.59,-259.28"/>
<polygon fill="none" stroke="black" points="328.73,-361.02 327.13,-368.86 319.29,-367.27 320.89,-359.43 328.73,-361.02"/>
<polyline fill="none" stroke="black" points="320.09,-363.35 318.13,-362.95 "/>
<polygon fill="none" stroke="black" points="286.39,-251.39 289.68,-258.68 282.38,-261.96 279.1,-254.67 286.39,-251.39"/>
<polyline fill="none" stroke="black" points="280.74,-258.32 278.91,-259.14 "/>
<text text-anchor="middle" x="260" y="-306.3" font-family="Times,serif" font-size="14.00">conn3</text>
</g>
<!-- radio_RadioDriver&#45;&gt;am_gate_CASE_AttestationGate -->
<g id="edge7" class="edge">
<title>radio_RadioDriver&#45;&gt;am_gate_CASE_AttestationGate</title>
<path fill="none" stroke="black" d="M393.82,-362.51C359.38,-353.71 327.28,-342.08 317.5,-328 308.37,-314.86 310.7,-306.48 317.5,-292 323.16,-279.95 332.97,-269.66 343.28,-261.39"/>
<polygon fill="none" stroke="black" points="404.53,-361.04 402.62,-368.81 394.85,-366.89 396.77,-359.12 404.53,-361.04"/>
<polyline fill="none" stroke="black" points="395.81,-363.01 393.87,-362.53 "/>
<polygon fill="none" stroke="black" points="349.2,-251.99 353.98,-258.41 347.56,-263.19 342.78,-256.77 349.2,-251.99"/>
<polyline fill="none" stroke="black" points="345.17,-259.98 343.57,-261.17 "/>
<text text-anchor="middle" x="339" y="-306.3" font-family="Times,serif" font-size="14.00">conn5</text>
</g>
<!-- radio_RadioDriver&#45;&gt;am_gate_CASE_AttestationGate -->
<g id="edge10" class="edge">
<title>radio_RadioDriver&#45;&gt;am_gate_CASE_AttestationGate</title>
<path fill="none" stroke="black" d="M430.17,-360.32C415.22,-352.43 401.01,-341.91 391.5,-328 379.07,-309.82 377.56,-284.54 378.73,-265.41"/>
<polygon fill="none" stroke="black" points="441.3,-361.31 437.78,-368.5 430.6,-364.98 434.11,-357.8 441.3,-361.31"/>
<polyline fill="none" stroke="black" points="432.35,-361.39 430.55,-360.51 "/>
<polygon fill="none" stroke="black" points="375.66,-254.87 383.62,-255.58 382.92,-263.54 374.95,-262.83 375.66,-254.87"/>
<polyline fill="none" stroke="black" points="378.93,-263.19 378.75,-265.18 "/>
<text text-anchor="middle" x="413" y="-306.3" font-family="Times,serif" font-size="14.00">conn7</text>
</g>
<!-- conn2 -->
<g id="node4" class="node">
<title>conn2</title>
<polygon fill="none" stroke="black" points="497.5,-328 443.04,-310 497.5,-292 551.96,-310 497.5,-328"/>
<text text-anchor="middle" x="497.5" y="-306.3" font-family="Times,serif" font-size="14.00">conn2</text>
</g>
<!-- radio_RadioDriver&#45;&gt;conn2 -->
<g id="edge2" class="edge">
<title>radio_RadioDriver&#45;&gt;conn2</title>
<path fill="none" stroke="black" d="M497.5,-364.81C497.5,-356.79 497.5,-347.05 497.5,-338.07"/>
<polygon fill="black" stroke="black" points="501,-338.03 497.5,-328.03 494,-338.03 501,-338.03"/>
</g>
<!-- conn4 -->
<g id="node5" class="node">
<title>conn4</title>
<polygon fill="none" stroke="black" points="623.5,-328 569.04,-310 623.5,-292 677.96,-310 623.5,-328"/>
<text text-anchor="middle" x="623.5" y="-306.3" font-family="Times,serif" font-size="14.00">conn4</text>
</g>
<!-- radio_RadioDriver&#45;&gt;conn4 -->
<g id="edge5" class="edge">
<title>radio_RadioDriver&#45;&gt;conn4</title>
<path fill="none" stroke="black" d="M527.68,-364.99C548.17,-353.45 575.08,-338.28 595.17,-326.96"/>
<polygon fill="black" stroke="black" points="597.15,-329.86 604.15,-321.9 593.72,-323.76 597.15,-329.86"/>
</g>
<!-- conn6 -->
<g id="node6" class="node">
<title>conn6</title>
<polygon fill="none" stroke="black" points="749.5,-328 695.04,-310 749.5,-292 803.96,-310 749.5,-328"/>
<text text-anchor="middle" x="749.5" y="-306.3" font-family="Times,serif" font-size="14.00">conn6</text>
</g>
<!-- radio_RadioDriver&#45;&gt;conn6 -->
<g id="edge8" class="edge">
<title>radio_RadioDriver&#45;&gt;conn6</title>
<path fill="none" stroke="black" d="M557.86,-364.99C605.65,-351.53 670.91,-333.14 711.61,-321.67"/>
<polygon fill="black" stroke="black" points="712.73,-325 721.41,-318.92 710.83,-318.26 712.73,-325"/>
</g>
<!-- conn15 -->
<g id="node11" class="node">
<title>conn15</title>
<polygon fill="none" stroke="black" points="884.5,-328 821.99,-310 884.5,-292 947.01,-310 884.5,-328"/>
<text text-anchor="middle" x="884.5" y="-306.3" font-family="Times,serif" font-size="14.00">conn15</text>
</g>
<!-- radio_RadioDriver&#45;&gt;conn15 -->
<g id="edge22" class="edge">
<title>radio_RadioDriver&#45;&gt;conn15</title>
<path fill="none" stroke="black" d="M598.84,-364.98C658.54,-355.09 735.4,-341.86 803.5,-328 814.99,-325.66 827.43,-322.83 839.1,-320.15"/>
<polygon fill="black" stroke="black" points="840.15,-323.5 849.12,-317.86 838.59,-316.68 840.15,-323.5"/>
</g>
<!-- am_gate_CASE_AttestationGate&#45;&gt;uxas_UxAS_thread -->
<g id="edge13" class="edge">
<title>am_gate_CASE_AttestationGate&#45;&gt;uxas_UxAS_thread</title>
<path fill="none" stroke="black" d="M108.59,-216.71C75.36,-208.7 49.29,-197.53 38.5,-182 14.99,-148.15 54.84,-125.8 101.25,-111.83"/>
<polygon fill="none" stroke="black" points="119.52,-215.09 117.75,-222.89 109.94,-221.12 111.72,-213.31 119.52,-215.09"/>
<polyline fill="none" stroke="black" points="110.83,-217.22 108.88,-216.77 "/>
<polygon fill="none" stroke="black" points="109.82,-105.22 112.02,-112.91 104.33,-115.11 102.13,-107.42 109.82,-105.22"/>
<polyline fill="none" stroke="black" points="103.23,-111.27 101.3,-111.82 "/>
<text text-anchor="middle" x="60" y="-160.3" font-family="Times,serif" font-size="14.00">conn9</text>
</g>
<!-- am_gate_CASE_AttestationGate&#45;&gt;uxas_UxAS_thread -->
<g id="edge16" class="edge">
<title>am_gate_CASE_AttestationGate&#45;&gt;uxas_UxAS_thread</title>
<path fill="none" stroke="black" d="M199.37,-217.01C161.25,-209.04 129.07,-197.8 117.5,-182 108.05,-169.09 109.76,-160 117.5,-146 124.85,-132.71 136.98,-122.25 149.86,-114.22"/>
<polygon fill="none" stroke="black" points="209.96,-215.04 208.39,-222.89 200.55,-221.32 202.11,-213.48 209.96,-215.04"/>
<polyline fill="none" stroke="black" points="201.33,-217.4 199.37,-217.01 "/>
<polygon fill="none" stroke="black" points="156.84,-105.58 160.83,-112.51 153.9,-116.51 149.91,-109.58 156.84,-105.58"/>
<polyline fill="none" stroke="black" points="151.91,-113.04 150.17,-114.04 "/>
<text text-anchor="middle" x="143.5" y="-160.3" font-family="Times,serif" font-size="14.00">conn11</text>
</g>
<!-- am_gate_CASE_AttestationGate&#45;&gt;uxas_UxAS_thread -->
<g id="edge19" class="edge">
<title>am_gate_CASE_AttestationGate&#45;&gt;uxas_UxAS_thread</title>
<path fill="none" stroke="black" d="M279.06,-216.53C243.97,-207.67 210.95,-196 200.5,-182 187.18,-164.16 189.61,-138.32 194.39,-118.9"/>
<polygon fill="none" stroke="black" points="289.95,-215.07 288.05,-222.84 280.28,-220.95 282.18,-213.18 289.95,-215.07"/>
<polyline fill="none" stroke="black" points="281.23,-217.06 279.28,-216.59 "/>
<polygon fill="none" stroke="black" points="193.26,-108.06 200.96,-110.21 198.81,-117.91 191.11,-115.76 193.26,-108.06"/>
<polyline fill="none" stroke="black" points="194.96,-116.84 194.42,-118.76 "/>
<text text-anchor="middle" x="226.5" y="-160.3" font-family="Times,serif" font-size="14.00">conn13</text>
</g>
<!-- conn8 -->
<g id="node7" class="node">
<title>conn8</title>
<polygon fill="none" stroke="black" points="315.5,-182 261.04,-164 315.5,-146 369.96,-164 315.5,-182"/>
<text text-anchor="middle" x="315.5" y="-160.3" font-family="Times,serif" font-size="14.00">conn8</text>
</g>
<!-- am_gate_CASE_AttestationGate&#45;&gt;conn8 -->
<g id="edge11" class="edge">
<title>am_gate_CASE_AttestationGate&#45;&gt;conn8</title>
<path fill="none" stroke="black" d="M366.28,-218.81C356.9,-208.87 345.03,-196.29 335.12,-185.79"/>
<polygon fill="black" stroke="black" points="337.41,-183.12 328,-178.25 332.32,-187.93 337.41,-183.12"/>
</g>
<!-- conn10 -->
<g id="node8" class="node">
<title>conn10</title>
<polygon fill="none" stroke="black" points="450.5,-182 387.99,-164 450.5,-146 513.01,-164 450.5,-182"/>
<text text-anchor="middle" x="450.5" y="-160.3" font-family="Times,serif" font-size="14.00">conn10</text>
</g>
<!-- am_gate_CASE_AttestationGate&#45;&gt;conn10 -->
<g id="edge14" class="edge">
<title>am_gate_CASE_AttestationGate&#45;&gt;conn10</title>
<path fill="none" stroke="black" d="M398.96,-218.81C408.36,-209 420.22,-196.62 430.19,-186.21"/>
<polygon fill="black" stroke="black" points="432.98,-188.35 437.37,-178.71 427.93,-183.51 432.98,-188.35"/>
</g>
<!-- conn12 -->
<g id="node9" class="node">
<title>conn12</title>
<polygon fill="none" stroke="black" points="593.5,-182 530.99,-164 593.5,-146 656.01,-164 593.5,-182"/>
<text text-anchor="middle" x="593.5" y="-160.3" font-family="Times,serif" font-size="14.00">conn12</text>
</g>
<!-- am_gate_CASE_AttestationGate&#45;&gt;conn12 -->
<g id="edge17" class="edge">
<title>am_gate_CASE_AttestationGate&#45;&gt;conn12</title>
<path fill="none" stroke="black" d="M433.04,-218.99C471.1,-206.19 522.4,-188.92 556.65,-177.4"/>
<polygon fill="black" stroke="black" points="557.9,-180.67 566.26,-174.17 555.67,-174.04 557.9,-180.67"/>
</g>
<!-- conn16 -->
<g id="node12" class="node">
<title>conn16</title>
<polygon fill="none" stroke="black" points="736.5,-182 673.99,-164 736.5,-146 799.01,-164 736.5,-182"/>
<text text-anchor="middle" x="736.5" y="-160.3" font-family="Times,serif" font-size="14.00">conn16</text>
</g>
<!-- am_gate_CASE_AttestationGate&#45;&gt;conn16 -->
<g id="edge24" class="edge">
<title>am_gate_CASE_AttestationGate&#45;&gt;conn16</title>
<path fill="none" stroke="black" d="M469.81,-218.97C523.71,-208.85 594.15,-195.41 656.5,-182 667.71,-179.59 679.87,-176.76 691.3,-174.11"/>
<polygon fill="black" stroke="black" points="692.16,-177.5 701.12,-171.84 690.59,-170.68 692.16,-177.5"/>
</g>
<!-- conn2&#45;&gt;am_gate_CASE_AttestationGate -->
<g id="edge3" class="edge">
<title>conn2&#45;&gt;am_gate_CASE_AttestationGate</title>
<path fill="none" stroke="black" d="M479.53,-297.91C463.35,-287.92 439.08,-272.93 418.86,-260.45"/>
<polygon fill="black" stroke="black" points="420.54,-257.37 410.19,-255.1 416.86,-263.33 420.54,-257.37"/>
</g>
<!-- conn4&#45;&gt;am_gate_CASE_AttestationGate -->
<g id="edge6" class="edge">
<title>conn4&#45;&gt;am_gate_CASE_AttestationGate</title>
<path fill="none" stroke="black" d="M595.85,-300.86C560.58,-290.46 498.35,-272.13 450.18,-257.94"/>
<polygon fill="black" stroke="black" points="451.01,-254.54 440.43,-255.07 449.03,-261.25 451.01,-254.54"/>
</g>
<!-- conn6&#45;&gt;am_gate_CASE_AttestationGate -->
<g id="edge9" class="edge">
<title>conn6&#45;&gt;am_gate_CASE_AttestationGate</title>
<path fill="none" stroke="black" d="M722.03,-301.03C711.04,-297.98 698.22,-294.62 686.5,-292 625.92,-278.47 557.94,-266.14 501.66,-256.68"/>
<polygon fill="black" stroke="black" points="502.09,-253.2 491.65,-255.01 500.94,-260.11 502.09,-253.2"/>
</g>
<!-- conn8&#45;&gt;uxas_UxAS_thread -->
<g id="edge12" class="edge">
<title>conn8&#45;&gt;uxas_UxAS_thread</title>
<path fill="none" stroke="black" d="M297.51,-151.59C281.85,-141.67 258.68,-126.98 239.27,-114.67"/>
<polygon fill="black" stroke="black" points="240.97,-111.61 230.65,-109.21 237.22,-117.52 240.97,-111.61"/>
</g>
<!-- conn10&#45;&gt;uxas_UxAS_thread -->
<g id="edge15" class="edge">
<title>conn10&#45;&gt;uxas_UxAS_thread</title>
<path fill="none" stroke="black" d="M420.71,-154.44C384.33,-143.98 321.66,-125.96 272.95,-111.96"/>
<polygon fill="black" stroke="black" points="273.67,-108.53 263.1,-109.13 271.74,-115.26 273.67,-108.53"/>
</g>
<!-- conn12&#45;&gt;uxas_UxAS_thread -->
<g id="edge18" class="edge">
<title>conn12&#45;&gt;uxas_UxAS_thread</title>
<path fill="none" stroke="black" d="M562.14,-155.01C549.83,-152 535.54,-148.66 522.5,-146 457.73,-132.78 385.09,-120.3 325.51,-110.68"/>
<polygon fill="black" stroke="black" points="325.73,-107.17 315.3,-109.04 324.62,-114.08 325.73,-107.17"/>
</g>
<!-- conn14&#45;&gt;uxas_UxAS_thread -->
<g id="edge21" class="edge">
<title>conn14&#45;&gt;uxas_UxAS_thread</title>
<path fill="none" stroke="black" d="M209.2,-34.58C210.17,-42.79 210.47,-53.1 210.09,-62.59"/>
<polygon fill="black" stroke="black" points="206.58,-62.59 209.38,-72.81 213.57,-63.08 206.58,-62.59"/>
</g>
<!-- conn15&#45;&gt;radio_RadioDriver -->
<g id="edge23" class="edge">
<title>conn15&#45;&gt;radio_RadioDriver</title>
<path fill="none" stroke="black" d="M856.55,-320.09C845.63,-322.78 833.08,-325.64 821.5,-328 756.99,-341.13 684.62,-353.69 624.63,-363.39"/>
<polygon fill="black" stroke="black" points="624.05,-359.93 614.73,-364.98 625.16,-366.85 624.05,-359.93"/>
</g>
<!-- conn16&#45;&gt;am_gate_CASE_AttestationGate -->
<g id="edge25" class="edge">
<title>conn16&#45;&gt;am_gate_CASE_AttestationGate</title>
<path fill="none" stroke="black" d="M708.69,-174.06C698.01,-176.73 685.78,-179.58 674.5,-182 615.8,-194.62 549.94,-207.28 495.6,-217.16"/>
<polygon fill="black" stroke="black" points="494.81,-213.75 485.59,-218.97 496.05,-220.64 494.81,-213.75"/>
</g>
</g>
</svg>
